<?xml version="1.0" encoding="UTF-8" standalone="no"?>
<!-- Uploaded to: SVG Repo, www.svgrepo.com, Transformed by: SVG Repo Mixer Tools -->

<svg
   height="800px"
   width="800px"
   version="1.1"
   id="Layer_1"
   viewBox="0 0 501.551 501.551"
   xml:space="preserve"
   sodipodi:docname="silver.svg"
   inkscape:version="1.2.2 (732a01da63, 2022-12-09)"
   xmlns:inkscape="http://www.inkscape.org/namespaces/inkscape"
   xmlns:sodipodi="http://sodipodi.sourceforge.net/DTD/sodipodi-0.dtd"
   xmlns="http://www.w3.org/2000/svg"
   xmlns:svg="http://www.w3.org/2000/svg"><defs
   id="defs17" /><sodipodi:namedview
   id="namedview15"
   pagecolor="#ffffff"
   bordercolor="#000000"
   borderopacity="0.25"
   inkscape:showpageshadow="2"
   inkscape:pageopacity="0.0"
   inkscape:pagecheckerboard="0"
   inkscape:deskcolor="#d1d1d1"
   showgrid="false"
   inkscape:zoom="1.04625"
   inkscape:cx="389.00836"
   inkscape:cy="319.23536"
   inkscape:window-width="1920"
   inkscape:window-height="1017"
   inkscape:window-x="-8"
   inkscape:window-y="-8"
   inkscape:window-maximized="1"
   inkscape:current-layer="Layer_1" />
<polygon
   style="fill:#F1543F;"
   points="189.127,109.714 318.694,109.714 432.588,0 303.02,0 "
   id="polygon2" />
<path
   style="fill:#808080"
   d="M342.727,168.229H158.824V87.771h183.902V168.229z M179.722,147.331h142.106v-38.661H179.722V147.331  z"
   id="path4" />
<polygon
   style="fill:#FF7058;"
   points="318.694,109.714 189.127,109.714 74.188,0 204.8,0 "
   id="polygon6" />
<circle
   style="fill:#e6e6e6"
   cx="250.776"
   cy="308.245"
   r="193.306"
   id="circle8" />
<path
   style="fill:#b3b3b3"
   d="M250.776,454.531c-80.457,0-146.286-65.829-146.286-146.286s65.829-146.286,146.286-146.286  s146.286,65.829,146.286,146.286S331.233,454.531,250.776,454.531z"
   id="path10" />
<polygon
   style="fill:#ececec"
   points="250.776,176.588 281.078,268.539 378.253,268.539 298.841,326.008 329.143,417.959   250.776,360.49 172.408,417.959 202.71,326.008 123.298,268.539 220.473,268.539 "
   id="polygon12" />
</svg>
