<?xml version="1.0" standalone="no"?>
<!DOCTYPE svg PUBLIC "-//W3C//DTD SVG 20010904//EN"
 "http://www.w3.org/TR/2001/REC-SVG-20010904/DTD/svg10.dtd">
<svg version="1.0" xmlns="http://www.w3.org/2000/svg"
 width="640.000000pt" height="640.000000pt" viewBox="0 0 640.000000 640.000000"
 preserveAspectRatio="xMidYMid meet">
<metadata>
Created by potrace 1.14, written by Peter Selinger 2001-2017
</metadata>
<g transform="translate(0.000000,640.000000) scale(0.100000,-0.100000)"
fill="#000000" stroke="none">
<path d="M1640 5683 c0 -4 -55 -9 -123 -10 -131 -2 -186 -15 -231 -54 -41 -36
-71 -97 -86 -179 -17 -91 -15 -81 -22 -105 -4 -11 -9 -38 -13 -60 -10 -68 -13
-71 -128 -128 -62 -30 -143 -78 -182 -106 -42 -31 -76 -49 -85 -45 -57 22
-273 88 -310 94 -48 8 -112 -6 -155 -34 -23 -15 -105 -116 -118 -146 -4 -8
-17 -31 -29 -50 -121 -199 -144 -292 -94 -388 19 -37 108 -123 243 -236 23
-19 30 -33 27 -49 -3 -12 -7 -51 -9 -87 -2 -36 -5 -67 -6 -70 -1 -3 -1 -9 0
-14 1 -5 4 -48 6 -96 1 -49 6 -97 9 -108 5 -15 -7 -31 -51 -70 -222 -193 -236
-212 -247 -317 -7 -68 162 -383 249 -465 29 -28 119 -60 152 -54 13 2 34 6 47
8 13 2 86 25 162 50 137 46 138 47 164 28 82 -61 156 -106 240 -146 97 -48
106 -57 115 -120 12 -78 53 -245 70 -279 9 -21 33 -51 52 -66 57 -47 107 -56
323 -56 194 0 196 1 253 28 54 27 104 82 116 127 10 38 34 147 36 165 2 11 4
20 5 20 1 0 3 9 5 20 2 11 7 36 11 55 4 19 7 38 6 42 -2 9 37 35 58 40 8 2 17
5 20 8 3 3 38 21 77 40 40 19 73 38 73 43 0 4 5 7 10 7 9 0 65 35 80 50 45 45
37 45 206 -10 87 -29 174 -53 194 -54 47 -4 120 24 157 60 42 40 131 180 191
299 47 93 50 104 48 165 -4 88 -27 127 -122 209 -21 18 -69 60 -105 92 l-67
60 6 52 c7 66 7 269 -1 324 -6 42 -5 42 66 107 75 67 104 93 147 130 47 40 77
100 84 171 7 61 -126 316 -236 456 -36 45 -142 75 -205 57 -20 -5 -43 -11 -52
-13 -9 -2 -50 -16 -91 -30 -41 -14 -82 -28 -90 -30 -8 -2 -28 -8 -43 -14 -28
-11 -44 -5 -102 41 -51 41 -250 148 -273 148 -16 0 -26 27 -47 130 -9 47 -19
94 -21 105 -2 11 -7 33 -9 48 -9 48 -46 116 -78 143 -47 40 -78 49 -196 59
-35 3 -68 8 -72 11 -5 3 -9 2 -9 -3z m110 -1228 c120 -40 219 -127 276 -241
42 -85 49 -114 49 -224 -1 -201 -130 -378 -324 -443 -62 -21 -89 -25 -165 -22
-103 3 -167 22 -241 70 -94 61 -165 150 -200 250 -20 57 -28 211 -13 259 5 17
11 39 13 49 9 41 70 137 117 185 52 53 164 117 223 128 16 3 31 7 33 9 11 11
185 -4 232 -20z"/>
<path d="M4040 3800 c-57 -8 -278 -116 -339 -166 -9 -7 -36 -28 -61 -46 -45
-34 -76 -77 -87 -120 -13 -54 -3 -112 47 -261 51 -157 52 -159 33 -180 -44
-50 -95 -132 -143 -231 -53 -108 -57 -111 -125 -121 -22 -4 -49 -9 -60 -12
-23 -8 -21 -7 -104 -23 -135 -24 -202 -79 -228 -185 -9 -38 -11 -330 -2 -394
19 -136 91 -199 259 -226 35 -6 64 -12 146 -31 l70 -16 17 -47 c21 -60 110
-214 154 -268 l34 -43 -52 -157 c-57 -173 -64 -235 -34 -293 21 -42 64 -90 81
-90 7 0 14 -4 16 -8 16 -40 380 -227 401 -206 3 3 21 7 41 9 64 6 110 45 274
233 51 58 55 61 90 55 62 -9 260 -10 320 -1 l57 8 45 -49 c25 -26 80 -86 123
-134 76 -84 117 -111 187 -121 52 -7 134 26 296 120 255 148 277 205 185 478
l-50 149 53 77 c55 79 136 225 136 245 0 33 30 46 170 76 80 17 152 32 161 34
30 6 96 53 117 82 33 47 44 100 48 226 2 67 4 124 5 127 1 3 1 9 0 14 -1 4 -4
38 -7 75 -3 36 -10 82 -16 101 -13 43 -64 110 -84 110 -8 0 -14 4 -14 9 0 6
-67 31 -100 36 -3 1 -20 5 -38 9 -38 9 -60 13 -116 21 -21 3 -47 10 -57 16
-11 5 -19 7 -19 4 0 -3 -9 -1 -19 5 -11 5 -25 26 -31 45 -21 63 -93 188 -164
285 l-26 35 51 150 c91 271 72 324 -166 467 -92 56 -214 117 -243 123 -10 2
-21 4 -27 6 -5 2 -33 0 -61 -4 -47 -7 -126 -50 -146 -80 -7 -11 -92 -107 -153
-172 l-40 -43 -55 8 c-63 8 -305 6 -336 -4 -16 -5 -33 8 -85 66 -147 165 -183
198 -234 216 -35 13 -63 16 -95 12z m740 -1100 c153 -47 284 -185 323 -339 18
-71 17 -208 -3 -256 -6 -16 -13 -38 -15 -47 -5 -26 -68 -119 -106 -157 -37
-37 -130 -100 -157 -106 -9 -2 -38 -10 -64 -18 -63 -20 -198 -16 -268 7 -139
47 -245 152 -302 299 -23 58 -32 208 -16 261 5 17 11 38 13 46 2 8 4 15 5 15
1 0 3 7 5 16 5 25 68 120 106 158 37 37 130 100 157 106 9 2 37 10 62 18 56
17 198 15 260 -3z"/>
</g>
</svg>
